<svg xmlns="http://www.w3.org/2000/svg" xmlns:xlink="http://www.w3.org/1999/xlink" width="27" height="29" viewBox="0 0 27 29"><defs><style>.a{fill:#9e9e9e;}.b{clip-path:url(#a);}</style><clipPath id="a"><rect class="a" width="29" height="27" transform="translate(-0.023 0)"/></clipPath></defs><g class="b" transform="translate(0 28.977) rotate(-90)"><path class="a" d="M6.231,15.43a.3.3,0,0,1-.3-.3V14.54a.3.3,0,0,1,.3-.3H9.5V11.869H6.231a.3.3,0,0,1-.3-.3v-.593a.3.3,0,0,1,.3-.3H9.5V8.308H6.231a.3.3,0,0,1-.3-.3V7.418a.3.3,0,0,1,.3-.3H9.5V4.748H6.231a.3.3,0,0,1-.3-.3V3.857a.3.3,0,0,1,.3-.3H9.5V1.187A1.187,1.187,0,0,0,8.308,0H1.187A1.187,1.187,0,0,0,0,1.187V17.8a1.187,1.187,0,0,0,1.187,1.187H8.308A1.187,1.187,0,0,0,9.5,17.8V15.43Z" transform="translate(10.012 3.64)"/></g></svg>