<svg xmlns="http://www.w3.org/2000/svg" xmlns:xlink="http://www.w3.org/1999/xlink" width="29" height="27" viewBox="0 0 29 27"><defs><style>.a{fill:#9e9e9e;}.b{clip-path:url(#a);}</style><clipPath id="a"><rect class="a" width="29" height="27" transform="translate(-0.015 0)"/></clipPath></defs><g class="b" transform="translate(0.015)"><path class="a" d="M19.506,8.869H17.17l-.649-1.623A4.347,4.347,0,0,0,12.464,4.5H7.51A4.348,4.348,0,0,0,3.453,7.246L2.8,8.869H.469a.468.468,0,0,0-.454.582l.234.936a.468.468,0,0,0,.454.355h.783a2.479,2.479,0,0,0-.861,1.873v1.873a2.476,2.476,0,0,0,.624,1.636v2.109A1.249,1.249,0,0,0,2.5,19.48H3.745a1.249,1.249,0,0,0,1.248-1.248V16.984h9.987v1.248a1.249,1.249,0,0,0,1.248,1.248h1.248a1.249,1.249,0,0,0,1.248-1.248V16.123a2.475,2.475,0,0,0,.624-1.636V12.614a2.48,2.48,0,0,0-.861-1.873h.783a.468.468,0,0,0,.454-.355l.234-.936a.468.468,0,0,0-.454-.582Zm-13.734-.7A1.873,1.873,0,0,1,7.51,7h4.954A1.873,1.873,0,0,1,14.2,8.174l.778,1.944H4.994l.778-1.944ZM3.745,14.479A1.178,1.178,0,0,1,2.5,13.235,1.178,1.178,0,0,1,3.745,11.99a2.4,2.4,0,0,1,1.873,1.867C5.618,14.6,4.494,14.479,3.745,14.479Zm12.484,0c-.749,0-1.873.124-1.873-.622a2.4,2.4,0,0,1,1.873-1.867,1.178,1.178,0,0,1,1.248,1.244A1.178,1.178,0,0,1,16.229,14.479Z" transform="translate(4.667 1.145)"/></g></svg>