<svg xmlns="http://www.w3.org/2000/svg" xmlns:xlink="http://www.w3.org/1999/xlink" width="25" height="23" viewBox="0 0 25 23"><defs><style>.a{fill:#9e9e9e;}.b{clip-path:url(#a);}</style><clipPath id="a"><rect class="a" width="25" height="23" transform="translate(-0.207 0)"/></clipPath></defs><g class="b" transform="translate(0.207 0)"><path class="a" d="M5.342,4.123A2.061,2.061,0,1,0,3.281,2.061,2.063,2.063,0,0,0,5.342,4.123Zm12.368,0a2.061,2.061,0,1,0-2.061-2.061A2.063,2.063,0,0,0,17.71,4.123Zm4.1,7.3L20.342,5.434a1.059,1.059,0,0,0-.96-.779,3.059,3.059,0,0,1-3.35,0,1.059,1.059,0,0,0-.96.779L13.6,11.418a.79.79,0,0,0,.8.95h1.765v3.35a.771.771,0,0,0,.773.773h1.546a.771.771,0,0,0,.773-.773v-3.35h1.765A.783.783,0,0,0,21.81,11.418ZM12.042,0H11.011A.517.517,0,0,0,10.5.515v15.46a.517.517,0,0,0,.515.515h1.031a.517.517,0,0,0,.515-.515V.515A.517.517,0,0,0,12.042,0ZM7.02,4.651a3.053,3.053,0,0,1-3.356,0A1.54,1.54,0,0,0,2.25,6.184v4.38a.771.771,0,0,0,.773.773h.258v4.38a.771.771,0,0,0,.773.773H6.63a.771.771,0,0,0,.773-.773v-4.38h.258a.771.771,0,0,0,.773-.773V6.184A1.54,1.54,0,0,0,7.02,4.651Z" transform="translate(0.065 2.944)"/></g></svg>