<svg xmlns="http://www.w3.org/2000/svg" width="28.921" height="28.921" viewBox="0 0 28.921 28.921"><defs><style>.a{fill:#232323;}</style></defs><path class="a" d="M17.835,3.375A14.46,14.46,0,1,0,32.3,17.835,14.458,14.458,0,0,0,17.835,3.375Zm-.3,21.134a1.433,1.433,0,1,1,1.495-1.432A1.452,1.452,0,0,1,17.536,24.509Zm2.795-6.737c-1.21.7-1.62,1.217-1.62,2.106v.549H16.3l-.021-.6a2.894,2.894,0,0,1,1.641-3.059c1.175-.7,1.669-1.147,1.669-2.009a1.687,1.687,0,0,0-1.87-1.495,1.759,1.759,0,0,0-1.863,1.71H13.386c.049-2.239,1.7-3.824,4.5-3.824,2.607,0,4.4,1.446,4.4,3.525A3.4,3.4,0,0,1,20.331,17.773Z" transform="translate(-3.375 -3.375)"/></svg>